<?xml version="1.0" encoding="utf-8"?>
<!-- Generator: Adobe Illustrator 25.2.0, SVG Export Plug-In . SVG Version: 6.00 Build 0)  -->
<svg version="1.1" id="레이어_1" xmlns="http://www.w3.org/2000/svg" xmlns:xlink="http://www.w3.org/1999/xlink" x="0px"
	 y="0px" viewBox="0 0 200 60" style="enable-background:new 0 0 200 60;" xml:space="preserve">
<style type="text/css">
	.st0{fill:#D1D1D1;}
	.st1{clip-path:url(#SVGID_4_);}
</style>
<g>
	<g>
		<g>
			<g>
				<path class="st0" d="M44.7,26.5c1.8,0,3.4,0,4.7,0s2.6,0,3.7-0.1c1.1,0,2.1-0.1,2.9-0.1c0.9-0.1,1.7-0.1,2.4-0.2l0.2,2.2
					c-0.7,0.1-1.6,0.2-2.6,0.2c-1,0.1-2.1,0.1-3.4,0.1v2.8h-2.9v-2.8c-0.8,0-1.6,0-2.4,0c-0.8,0-1.7,0-2.7,0L44.7,26.5L44.7,26.5z
					 M51.6,25.9c-0.8,0-1.5-0.1-2.1-0.2s-1.2-0.4-1.7-0.6c-0.5-0.3-0.9-0.6-1.2-1s-0.4-0.9-0.4-1.4v-0.6c0-0.5,0.1-1,0.4-1.4
					c0.3-0.4,0.7-0.8,1.2-1c0.5-0.3,1.1-0.5,1.7-0.6c0.7-0.1,1.4-0.2,2.1-0.2c0.8,0,1.5,0.1,2.1,0.2c0.7,0.1,1.2,0.4,1.7,0.6
					c0.5,0.3,0.9,0.6,1.2,1s0.4,0.9,0.4,1.4v0.5c0,0.5-0.1,1-0.4,1.4c-0.3,0.4-0.7,0.8-1.2,1c-0.5,0.3-1.1,0.5-1.7,0.6
					C53.1,25.8,52.4,25.9,51.6,25.9z M62.7,32.2v5.2H51.3v1h12.1v2.2h-15v-5.3H60v-1H48.3v-2.2L62.7,32.2
					C62.7,32.1,62.7,32.2,62.7,32.2z M51.6,21c-0.9,0-1.6,0.1-2,0.3c-0.4,0.2-0.7,0.5-0.7,0.9v0.2c0,0.4,0.2,0.7,0.7,0.9
					s1.1,0.3,2,0.3s1.6-0.1,2-0.3c0.5-0.2,0.7-0.5,0.7-0.9v-0.2c0-0.4-0.2-0.7-0.7-0.9C53.2,21.1,52.5,21,51.6,21z M55.5,29.2h4.3
					V18.6h3v13h-3v-0.3h-4.3C55.5,31.3,55.5,29.2,55.5,29.2z"/>
			</g>
			<g>
				<path class="st0" d="M66.6,30.1c1.7-0.7,3-1.3,4-1.8s1.8-1,2.3-1.4c0.5-0.5,0.9-0.9,1-1.4c0.2-0.5,0.2-1,0.2-1.7v-1.3h-6.6V20
					h9.6v4.1c0,0.9-0.1,1.7-0.4,2.4c-0.2,0.7-0.7,1.3-1.4,1.9s-1.6,1.2-2.8,1.9c-1.2,0.6-2.8,1.4-4.7,2.2L66.6,30.1z M73.1,37.6
					h11.1v2.5H70.1v-7.2h3V37.6z M83.6,24.4h2.9V27h-2.9v7.1h-3V18.6h3V24.4z"/>
			</g>
			<g>
				<path class="st0" d="M95.1,26.6c0,0.2-0.2,0.4-0.5,0.7c-0.3,0.3-0.6,0.6-0.9,0.9c-0.5,0.5-1.1,1-1.6,1.4c-0.5,0.5-1.2,1-1.9,1.6
					l-1.9-2.1c0.6-0.5,1.2-1,1.9-1.5c0.6-0.5,1.2-1.1,1.8-1.6c0.6-0.5,1-1.1,1.2-1.6s0.4-1.2,0.4-2v-2.9h3v2.8c0,0.4,0,0.8,0.1,1.1
					c0.1,0.3,0.1,0.6,0.2,0.9s0.3,0.5,0.5,0.8c0.2,0.2,0.4,0.5,0.8,0.8c0.6,0.5,1.1,0.9,1.7,1.4c0.6,0.4,1.2,0.9,1.7,1.3l-1.7,2.1
					c-0.5-0.3-0.9-0.7-1.5-1.1s-1.1-0.8-1.6-1.3c-0.4-0.3-0.7-0.6-1-0.9C95.4,27,95.2,26.8,95.1,26.6L95.1,26.6z M91.9,32.3h14.4
					v8.3h-3v-5.8H91.9V32.3z M106.3,31.3h-3V18.6h3V31.3z"/>
			</g>
			<g>
				<path class="st0" d="M111.1,19.9h10.2v2.6H114v5.6c0.8,0,1.6,0,2.3,0c0.7,0,1.4,0,2.1,0s1.4-0.1,2.1-0.1
					c0.7-0.1,1.4-0.1,2.2-0.2l0.3,2.5c-0.7,0.1-1.4,0.2-2.2,0.2c-0.8,0.1-1.6,0.1-2.6,0.1c-0.9,0-2,0.1-3.2,0.1s-2.5,0-4,0
					L111.1,19.9L111.1,19.9z M116.9,37.6H128v2.5h-14v-7.3h3C116.9,32.8,116.9,37.6,116.9,37.6z M127.4,24h2.9v2.6h-2.9v7.5h-3V18.6
					h3V24z"/>
			</g>
			<g>
				<path class="st0" d="M138,30.8c-0.9,0-1.6-0.1-2.3-0.4s-1.3-0.6-1.8-1.1s-0.9-1-1.1-1.6c-0.3-0.6-0.4-1.2-0.4-1.9v-1.3
					c0-0.7,0.1-1.3,0.4-1.9c0.3-0.6,0.6-1.1,1.1-1.6s1.1-0.8,1.8-1.1c0.7-0.3,1.5-0.4,2.3-0.4c0.9,0,1.6,0.1,2.3,0.4
					s1.3,0.6,1.8,1.1s0.9,1,1.1,1.6c0.3,0.6,0.4,1.2,0.4,1.9v1.3c0,0.7-0.1,1.3-0.4,1.9s-0.6,1.1-1.1,1.6s-1.1,0.8-1.8,1.1
					C139.8,30.7,138.9,30.8,138,30.8z M138,22c-0.4,0-0.8,0.1-1.2,0.2s-0.6,0.3-0.9,0.6c-0.2,0.2-0.4,0.5-0.6,0.9
					c-0.1,0.3-0.2,0.7-0.2,1v0.9c0,0.4,0.1,0.7,0.2,1s0.3,0.6,0.6,0.9c0.2,0.2,0.5,0.4,0.9,0.6s0.7,0.2,1.2,0.2
					c0.4,0,0.8-0.1,1.2-0.2s0.6-0.3,0.9-0.6c0.2-0.2,0.4-0.5,0.6-0.9s0.2-0.7,0.2-1v-0.9c0-0.3-0.1-0.7-0.2-1
					c-0.1-0.3-0.3-0.6-0.6-0.9c-0.2-0.2-0.5-0.4-0.9-0.6C138.9,22,138.5,22,138,22z M139.3,37.6h11.2v2.5h-14.2v-7.3h3V37.6z
					 M147.3,21.3v-2.7h2.9v15.5h-2.9v-5h-3v-2.5h3v-2.8h-3v-2.5H147.3z"/>
			</g>
			<g>
				<path class="st0" d="M167.5,29.6c0.2-1.1,0.4-2.1,0.5-3.1s0.1-2,0.1-3.1v-1h-11.7v-2.6H171v3c0,1.2-0.1,2.4-0.2,3.6
					c-0.1,1.2-0.3,2.2-0.5,3.2h3.5v2.5h-8.5v8.3h-3v-8.3h-8.5v-2.5C153.8,29.6,167.5,29.6,167.5,29.6z"/>
			</g>
			<g>
				<path class="st0" d="M184.4,35.2v-4.3h3v4.3h8.5v2.5h-20v-2.5H184.4z M186,26.9c-0.1,0.3-0.4,0.6-0.8,0.9s-0.9,0.7-1.5,1.1
					s-1.4,0.9-2.2,1.4s-1.8,1.1-3,1.7l-1.5-2.3c0.9-0.5,1.7-1,2.6-1.5c0.9-0.5,1.7-1,2.3-1.5c0.5-0.3,0.9-0.6,1.2-0.9s0.5-0.6,0.7-1
					s0.3-0.7,0.4-1.1s0.1-0.9,0.1-1.4v-2.2h3v2c0,0.5,0,1,0.1,1.4s0.2,0.8,0.4,1.1s0.4,0.7,0.7,1s0.7,0.6,1.2,0.9
					c0.7,0.5,1.5,1,2.3,1.5c0.9,0.5,1.7,1,2.6,1.5l-1.4,2.3c-1.1-0.6-2.1-1.2-3-1.7c-0.8-0.5-1.6-1-2.2-1.4c-0.6-0.4-1.1-0.8-1.4-1
					C186.3,27.4,186.1,27.2,186,26.9L186,26.9z"/>
			</g>
		</g>
	</g>
	<g>
		<g>
			<g>
				<g>
					<g>
						<path id="SVGID_1_" class="st0" d="M29.3,23.6c-0.4-5.1-3.8-9-8.8-9c-5.2,0-8.4,4-8.8,9c-3.6,0.2-7.3,3.1-7.3,6.7
							c0,3,3,5.6,5.8,6.4l-1.1,7.1c0,0.5,0.4,0.8,0.8,0.8H31c0.5,0,0.8-0.4,0.8-0.8l-1-7c2.8-0.8,5.8-3.4,5.8-6.4
							C36.6,26.6,32.9,23.7,29.3,23.6z M28.7,35.1c-0.4,0.1-0.7,0.4-0.7,0.8l1,5.9H11.9l1-5.9c0-0.4-0.3-0.8-0.7-0.8
							c-2.4-0.4-5.1-2.5-5.1-4.9c0-2.8,3.3-5,6-5c0.2,0,0.3,0,0.4,0c0.3,0,0.5-0.1,0.7-0.3c0.2-0.2,0.3-0.4,0.3-0.7
							c0-4.5,1.3-7.3,5.8-7.3s6.3,2.8,6.3,7.3l0,0c0,0.3,0.1,0.5,0.3,0.7s0.4,0.3,0.7,0.3c0.2,0,0.3,0,0.4,0c2.8,0,6,2.3,6,5
							C33.8,32.7,31.1,34.7,28.7,35.1z"/>
					</g>
					<g>
						<defs>
							<path id="SVGID_3_" d="M29.3,23.6c-0.4-5.1-3.8-9-8.8-9c-5.2,0-8.4,4-8.8,9c-3.6,0.2-7.3,3.1-7.3,6.7c0,3,3,5.6,5.8,6.4
								l-1.1,7.1c0,0.5,0.4,0.8,0.8,0.8H31c0.5,0,0.8-0.4,0.8-0.8l-1-7c2.8-0.8,5.8-3.4,5.8-6.4C36.6,26.6,32.9,23.7,29.3,23.6z
								 M28.7,35.1c-0.4,0.1-0.7,0.4-0.7,0.8l1,5.9H11.9l1-5.9c0-0.4-0.3-0.8-0.7-0.8c-2.4-0.4-5.1-2.5-5.1-4.9c0-2.8,3.3-5,6-5
								c0.2,0,0.3,0,0.4,0c0.3,0,0.5-0.1,0.7-0.3c0.2-0.2,0.3-0.4,0.3-0.7c0-4.5,1.3-7.3,5.8-7.3s6.3,2.8,6.3,7.3l0,0
								c0,0.3,0.1,0.5,0.3,0.7s0.4,0.3,0.7,0.3c0.2,0,0.3,0,0.4,0c2.8,0,6,2.3,6,5C33.8,32.7,31.1,34.7,28.7,35.1z"/>
						</defs>
						<use xlink:href="#SVGID_3_"  style="overflow:visible;fill:#D1D1D1;"/>
						<clipPath id="SVGID_4_">
							<use xlink:href="#SVGID_3_"  style="overflow:visible;"/>
						</clipPath>
						<g class="st1">
							<polygon class="st0" points="10.1,22.5 19.2,30 32.1,22.5 27.8,14.3 15.1,13.5 13.4,18 							"/>
							<polygon class="st0" points="8,20.7 15.9,27.1 10.6,46.9 4,45.8 1.8,37.5 1.2,28 							"/>
							<polygon class="st0" points="13.9,40.7 6.6,46.2 22.6,47.9 31.1,47.5 34.4,34.4 27.9,34.4 13.3,41.6 							"/>
							<polyline class="st0" points="26.5,32.8 29.5,34.6 33.3,40.1 36.6,36.1 38.5,31.1 36.1,25 31.3,23.2 31.9,21.5 25,27.1 
															"/>
						</g>
					</g>
					<g>
						<path id="SVGID_2_" class="st0" d="M29.3,23.6c-0.4-5.1-3.8-9-8.8-9c-5.2,0-8.4,4-8.8,9c-3.6,0.2-7.3,3.1-7.3,6.7
							c0,3,3,5.6,5.8,6.4l-1.1,7.1c0,0.5,0.4,0.8,0.8,0.8H31c0.5,0,0.8-0.4,0.8-0.8l-1-7c2.8-0.8,5.8-3.4,5.8-6.4
							C36.6,26.6,32.9,23.7,29.3,23.6z M28.7,35.1c-0.4,0.1-0.7,0.4-0.7,0.8l1,5.9H11.9l1-5.9c0-0.4-0.3-0.8-0.7-0.8
							c-2.4-0.4-5.1-2.5-5.1-4.9c0-2.8,3.3-5,6-5c0.2,0,0.3,0,0.4,0c0.3,0,0.5-0.1,0.7-0.3c0.2-0.2,0.3-0.4,0.3-0.7
							c0-4.5,1.3-7.3,5.8-7.3s6.3,2.8,6.3,7.3l0,0c0,0.3,0.1,0.5,0.3,0.7s0.4,0.3,0.7,0.3c0.2,0,0.3,0,0.4,0c2.8,0,6,2.3,6,5
							C33.8,32.7,31.1,34.7,28.7,35.1z"/>
					</g>
				</g>
			</g>
		</g>
		<rect x="15.2" y="34.4" class="st0" width="1.3" height="5.5"/>
		<rect x="19.8" y="34.4" class="st0" width="1.3" height="5.5"/>
		<rect x="24.3" y="34.4" class="st0" width="1.3" height="5.5"/>
	</g>
</g>
</svg>
