<?xml version="1.0" encoding="utf-8"?>
<!-- Generator: Adobe Illustrator 25.2.0, SVG Export Plug-In . SVG Version: 6.00 Build 0)  -->
<svg version="1.1" id="Layer_1" xmlns="http://www.w3.org/2000/svg" xmlns:xlink="http://www.w3.org/1999/xlink" x="0px" y="0px"
	 viewBox="0 0 32 32" style="enable-background:new 0 0 32 32;" xml:space="preserve">
<style type="text/css">
	.st0{fill:#FFFFFF;}
</style>
<g>
	<path id="svg_1" class="st0" d="M13,27C6.4,27,1,21.6,1,15S6.4,3,13,3s12,5.4,12,12S19.6,27,13,27z M13,5C7.5,5,3,9.5,3,15
		s4.5,10,10,10s10-4.5,10-10S18.5,5,13,5z"/>
	<path id="svg_2" class="st0" d="M30,29c-0.2,0-0.4-0.1-0.6-0.2l-8-6c-0.4-0.3-0.5-1-0.2-1.4s1-0.5,1.4-0.2l0,0l8,6
		c0.4,0.3,0.5,1,0.2,1.4C30.6,28.9,30.3,29,30,29z"/>
</g>
</svg>
